<svg xmlns="http://www.w3.org/2000/svg" xmlns:xlink="http://www.w3.org/1999/xlink" xml:space="preserve" id="Layer_1" x="0" y="0" style="enable-background:new 0 0 1440 311" version="1.1" viewBox="0 0 1440 311"><style>.st1{opacity:.5}.st2{fill:#fff}</style><defs><path id="SVGID_1_" d="M-93 0h1570v311H-93z"/></defs><clipPath id="SVGID_00000015316584880788209420000015502712524819461046_"><use xlink:href="#SVGID_1_" style="overflow:visible"/></clipPath><g style="clip-path:url(#SVGID_00000015316584880788209420000015502712524819461046_)"><g class="st1"><path d="m211 21 17-5 5-1a85 85 0 0 1 10 0l5 1c19 2 35 5 51 9l45 12a525 525 0 0 0 87 14l22 2 22 2 23 1a32628 32628 0 0 0 116 4 1179 1179 0 0 0 187-19l-7 2-7 1a328 328 0 0 0-29 6l-14 4-13 4-28 7-13 3-14 4-7 1-7 2-15 3-13 3-7 2-7 1-15 3-15 3c-20 3-41 5-62 5l-65-3-44-2h-19c-3 0-1 1 5 1h-12l-11 2c-7 1-15 2-23 1a127 127 0 0 1-25-4l-23-8c-14-5-27-11-41-15a82 82 0 0 1-12-1h-3l-4-1-6-2-6-2-7-2-6-2-25-4a100 100 0 0 0-42 7l-14 8 2-2 2-2 1-2h1a80 80 0 0 0-19 10 85 85 0 0 1 32-33l23-11 24-7z" class="st2"/></g><g class="st1"><path d="M587 248h9l4-1h5a100 100 0 0 1 19 1c35 6 68 9 101 9h25l6-1h6l12-1 48-8c31-7 63-17 97-26l25-7 25-7 13-3 6-2 7-1 13-3 13-3a2349 2349 0 0 1 226-41c-22 3-43 5-65 11-42 12-79 24-120 40l-14 6-15 6-31 13-16 6-15 7-32 10-71 22-46 13-14 4a307 307 0 0 0-8 3l-6 2-12 4-3 2-3 1-6 2-7 2h-1l-2 1h-4l-14 2h-28l-6-1h-4l-3-1-13-2h-3l-3-1-7-1-6-1-3-1h-3l-13-3a83 83 0 0 1-23-2l-16-5-15-5-3-2-4-1-8-3-7-3-7-3a934 934 0 0 0-59-24h3l-22-11 48 4 25 2 13 1h12z" class="st2"/></g><g class="st1"><path d="m1079 6 11-4c4-2 8-2 13-2a455 455 0 0 1 127 28c39 13 76 29 116 45l16 6 16 6 17 5 8 2 4 1 4 1c21 6 43 10 66 13l-10-1-5-1-4-1a158 158 0 0 0-20-2h-38l-10-1h-9l-20-2c-24-2-54-2-79-12a636 636 0 0 0-78-23c-5-1-10 0-15 1-5 0-9 2-15 1l-15-3a157 157 0 0 1-28-9l-13-5c-3 1-11 2-14 0l-8-3-5-2-4-1-9-3-9-3a159 159 0 0 0-29-5l-6-1h-5l5-2-14-3 13-7 3-1 4-1 8-3 15-4 16-4z" class="st2"/></g><g class="st1"><path d="M264 247c-4 4-7 13-14 16l-7 3-7 4-14 6-28 9-14 4-7 2-7 1-3 1-4 1-7 1-7 1-7 1a511 511 0 0 1-111 3 1470 1470 0 0 0-119 6c11-1 22-1 33-5l65-20 33-10c11-4 23-6 35-6a320 320 0 0 0 72-12h-4c9-2 14-10 22-14s17-6 25-7l6-1h3l3-1a130 130 0 0 0 12-2l2-2 3-2 5-2a710 710 0 0 0 51-10l19-5-1 1-2 1-1 2h13a530 530 0 0 0-38 36z" class="st2"/></g></g></svg>